<svg id="Logo" xmlns="http://www.w3.org/2000/svg" viewBox="0 0 179.82 275.93"><defs><style>.cls-2{opacity:.5}.cls-3{fill:#e0ff00}</style></defs><path fill="#222831" d="M45.53 8.96l-4.92 61.53L0 131.17l64.07 144.76 74.75-77.91-13-59.81 50.7-44.24 3.3-12.95-10.03-4.7 9.28-6.67.58-27.11-56.61 19.04-16.66-17.52-22.1-3.63L87.79 0 64.07 30.61 45.53 8.96z"/><g class="cls-2"><path class="cls-3" d="M445.5 198.5c-3.18 5-6.43 10-9.66 15s-6.52 9.93-9.78 14.9-6.51 9.94-9.84 14.86L406.28 258l.08-.91 5.05 11.18 5 11.22 9.9 22.45L436 324.5c1.63 3.75 3.19 7.54 4.78 11.3s3.18 7.54 4.73 11.33q-2.67-5.52-5.27-11.08c-1.74-3.71-3.52-7.39-5.22-11.11l-10.28-22.28-10.1-22.36-5-11.19-4.95-11.23-.21-.48.29-.43 10.06-14.71c3.34-4.91 6.77-9.76 10.16-14.64s6.76-9.77 10.22-14.6 6.79-9.71 10.29-14.52z" transform="translate(-402.18 -125.98)"/></g><g class="cls-2"><path class="cls-3" d="M525.5 265.5c1.22 4.7 2.31 9.43 3.47 14.15s2.22 9.46 3.28 14.19c2.16 9.47 4.21 19 6.23 28.45l.1.51-.35.38q-10.89 11.63-21.9 23.11-5.52 5.74-11.09 11.42c-3.75 3.76-7.45 7.57-11.24 11.29 3.46-4 7-8 10.51-12s7.09-7.91 10.66-11.83q10.71-11.77 21.6-23.39l-.25.89c-2-9.51-3.93-19-5.77-28.55-.94-4.77-1.83-9.54-2.72-14.31s-1.75-9.51-2.53-14.31z" transform="translate(-402.18 -125.98)"/></g></svg>